<?xml version="1.0" encoding="utf-8"?>
<!-- Generator: Adobe Illustrator 21.1.0, SVG Export Plug-In . SVG Version: 6.00 Build 0)  -->
<svg version="1.1" id="Layer_1" xmlns="http://www.w3.org/2000/svg" xmlns:xlink="http://www.w3.org/1999/xlink" x="0px" y="0px"
	 viewBox="0 0 24 24" style="enable-background:new 0 0 24 24;" xml:space="preserve">
<path style="fill:none;" d="M0,0h24v24H0V0z"/>
<path d="M12,17.1c-3.6,0-6.4-1.7-6.4-3.8c0-1.5,0-1.5,0-6.3l2,0c0,4.8,0,4.8,0,6.3c0,0.7,1.9,1.8,4.4,1.8s4.4-1.1,4.4-1.8
	c0-1.5,0-1.5,0-6.3l2,0c0,4.9,0,4.9,0,6.3C18.4,15.4,15.6,17.1,12,17.1z"/>
</svg>
