<?xml version="1.0" encoding="utf-8"?>
<!-- Generator: Adobe Illustrator 21.1.0, SVG Export Plug-In . SVG Version: 6.00 Build 0)  -->
<svg version="1.1" id="Layer_1" xmlns="http://www.w3.org/2000/svg" xmlns:xlink="http://www.w3.org/1999/xlink" x="0px" y="0px"
	 viewBox="0 0 24 24" style="enable-background:new 0 0 24 24;" xml:space="preserve">
<path style="fill:none;" d="M0,0h24v24H0V0z"/>
<path d="M18.4,6.9l-2,0c0,4.8,0,4.8,0,6.3c0,0.6-1.4,1.5-3.4,1.8l0-4.8l-2,0l0,4.8c-2-0.2-3.4-1.1-3.4-1.8c0-1.5,0-1.5,0-6.3l-2,0
	c0,4.9,0,4.9,0,6.3c0,1.9,2.3,3.5,5.4,3.8l0,2.1l2,0l0-2.1c3.1-0.3,5.4-1.8,5.4-3.8C18.4,11.8,18.4,11.8,18.4,6.9z"/>
</svg>
