<?xml version="1.0" encoding="utf-8"?>
<!-- Generator: Adobe Illustrator 21.1.0, SVG Export Plug-In . SVG Version: 6.00 Build 0)  -->
<svg version="1.1" id="Layer_1" xmlns="http://www.w3.org/2000/svg" xmlns:xlink="http://www.w3.org/1999/xlink" x="0px" y="0px"
	 viewBox="0 0 24 24" style="enable-background:new 0 0 24 24;" xml:space="preserve">
<path style="fill:none;" d="M0,0h24v24H0V0z"/>
<path d="M19.2,6.9l-2,0c0,4.8,0,4.8,0,6.3c0,0.4-0.9,1.1-2.3,1.5l0-4.5l-2,0l0,4.8c-0.3,0-0.6,0-0.9,0c-0.3,0-0.6,0-0.9,0l0-4.8
	l-2,0l0,4.5c-1.5-0.4-2.3-1.1-2.3-1.5c0-1.5,0-1.5,0-6.3l-2,0c0,4.9,0,4.9,0,6.3c0,1.8,2,3,4.3,3.5l0,2.4l2,0l0-2.1
	c0.3,0,0.6,0,0.9,0c0.3,0,0.6,0,0.9,0l0,2.1l2,0l0-2.4c2.4-0.5,4.3-1.7,4.3-3.5C19.2,11.8,19.2,11.8,19.2,6.9z"/>
</svg>
