<?xml version="1.0" encoding="utf-8"?>
<!-- Generator: Adobe Illustrator 21.1.0, SVG Export Plug-In . SVG Version: 6.00 Build 0)  -->
<svg version="1.1" id="Layer_1" xmlns="http://www.w3.org/2000/svg" xmlns:xlink="http://www.w3.org/1999/xlink" x="0px" y="0px"
	 viewBox="0 0 24 24" style="enable-background:new 0 0 24 24;" xml:space="preserve">
<path style="fill:none;" d="M0,0h24v24H0V0z"/>
<path d="M20.7,6.9l-2,0c0,4.8,0,4.8,0,6.3c0,0.2-0.7,0.7-2,1.2l0-4.2l-2,0l0,4.6C14.2,15,13.6,15,13,15l0-4.8l-2,0l0,4.8
	c-0.6,0-1.2-0.1-1.8-0.2l0-4.6l-2,0l0,4.2c-1.3-0.4-2-0.9-2-1.2c0-1.5,0-1.5,0-6.3l-2,0c0,4.9,0,4.9,0,6.3c0,2.5,4.4,3.8,8.7,3.8
	c4.3,0,8.7-1.3,8.7-3.8C20.7,11.8,20.7,11.8,20.7,6.9z"/>
</svg>
